<?xml version="1.0" encoding="utf-8"?>
<!-- Generator: Adobe Illustrator 24.0.2, SVG Export Plug-In . SVG Version: 6.00 Build 0)  -->
<svg version="1.1" id="Layer_1" xmlns="http://www.w3.org/2000/svg" xmlns:xlink="http://www.w3.org/1999/xlink" x="0px" y="0px"
	 viewBox="0 0 512 139.4" style="enable-background:new 0 0 512 139.4;" xml:space="preserve">
<style type="text/css">
	.st0{fill:#FF0049;}
	.st1{fill:#FFFFFF;}
</style>
<rect class="st0" width="512" height="139.4"/>
<g>
	<path class="st1" d="M36.1,21.9c0.4-0.2,2-0.3,4.8-0.3c4.6,0,7.2,0.2,8,0.5c0.7,0.2,1.7,1.6,2.9,4.2c2.3,5.4,6.8,18.3,13.3,38.7
		c1.7,5.5,2.9,9.3,3.5,11.2l1.3,3.4c0.2,0,0.4-0.5,0.6-1.4c0-0.2,0.1-0.6,0.3-1.3c0.2-0.6,0.4-1.4,0.6-2.3c0.2-0.9,0.4-1.7,0.6-2.3
		c1.3-4.9,3.1-13.4,5.5-25.5C80,34.5,81.5,27.3,82,24.9c0.2-1.2,0.5-1.9,0.7-2.2c0.3-0.3,0.9-0.5,1.8-0.7c1.3-0.3,4-0.5,8.3-0.5
		l6.2,0.2l0.2,31.8c0.2,22.6,0.4,34.9,0.6,37.1c1.1,13.3,1.6,21.6,1.6,24.9v0.8c-0.4,0.7-3.9,1.1-10.5,1.1h-2.1
		c-2.7,0-4.1-0.2-4.2-0.6c-0.3-0.7-0.6-3.2-0.8-7.5c-0.1-1.1-0.2-2.2-0.2-3.4c-0.1-1.2-0.1-2.2-0.2-2.8c-0.1-0.6-0.1-1-0.1-1.1
		l-0.2-0.2c-0.2,0-1,2.9-2.4,8.8c-0.9,3.7-1.4,5.8-1.8,6.1c-0.2,0.2-1,0.3-2.4,0.3c-6.2,0.2-9.4,0.3-9.7,0.3c-2,0-3.3-0.2-3.8-0.5
		s-1-1.2-1.5-2.6c-0.6-1.4-3.2-8.9-7.7-22.5c-1.4-4.3-2.2-6.4-2.4-6.4c-0.1,0-0.2,0.4-0.2,1.1v0.8c0,2.3,0.2,5.8,0.5,10.5
		c0.3,4.6,0.6,7.2,0.8,7.8c0.3,0.7,0.5,3.4,0.5,8c0,1.9-0.1,2.9-0.2,3c-0.1,0.1-2.9,0.3-8.3,0.5l-8.2,0.2c-1-2.1-1.7-10.2-2.2-24.3
		c0-1.1-0.4-9.6-1.2-25.5C32.4,51.4,32,40.2,32,33.7c0-0.7,0-1.8,0.1-3c0.1-1.3,0.1-2.2,0.1-2.7C32.2,24,32.9,22,34,22h0.5
		C35.1,22.2,35.6,22.1,36.1,21.9z M92.7,90.8l0.2,0.3c0.1-0.3,0.1-0.5,0-0.6C92.8,90.3,92.7,90.4,92.7,90.8z M93.2,93.2
		c0.2,0.2,0.4,0.2,0.6,0c0.2-0.2,0.1-0.3-0.3-0.3C93.1,92.8,93,93,93.2,93.2z"/>
	<path class="st1" d="M116.5,21.9c0.4-0.2,2-0.3,4.8-0.3c4.6,0,7.2,0.2,8,0.5c0.7,0.2,1.7,1.6,2.9,4.2c2.3,5.4,6.8,18.3,13.3,38.7
		c1.7,5.5,2.9,9.3,3.5,11.2l1.3,3.4c0.2,0,0.4-0.5,0.6-1.4c0-0.2,0.1-0.6,0.3-1.3c0.2-0.6,0.4-1.4,0.6-2.3c0.2-0.9,0.4-1.7,0.6-2.3
		c1.3-4.9,3.1-13.4,5.5-25.5c2.4-12.1,3.9-19.3,4.4-21.7c0.2-1.2,0.5-1.9,0.7-2.2c0.3-0.3,0.9-0.5,1.8-0.7c1.3-0.3,4-0.5,8.3-0.5
		l6.2,0.2l0.2,31.8c0.2,22.6,0.4,34.9,0.6,37.1c1.1,13.3,1.6,21.6,1.6,24.9v0.8c-0.4,0.7-3.9,1.1-10.5,1.1h-2.1
		c-2.7,0-4.1-0.2-4.2-0.6c-0.3-0.7-0.6-3.2-0.8-7.5c-0.1-1.1-0.2-2.2-0.2-3.4c-0.1-1.2-0.1-2.2-0.2-2.8c-0.1-0.6-0.1-1-0.1-1.1
		l-0.2-0.2c-0.2,0-1,2.9-2.4,8.8c-0.9,3.7-1.4,5.8-1.8,6.1c-0.2,0.2-1,0.3-2.4,0.3c-6.2,0.2-9.4,0.3-9.7,0.3c-2,0-3.3-0.2-3.8-0.5
		c-0.5-0.3-1-1.2-1.5-2.6c-0.6-1.4-3.2-8.9-7.7-22.5c-1.4-4.3-2.2-6.4-2.4-6.4c-0.1,0-0.2,0.4-0.2,1.1v0.8c0,2.3,0.2,5.8,0.5,10.5
		c0.3,4.6,0.6,7.2,0.8,7.8c0.3,0.7,0.5,3.4,0.5,8c0,1.9-0.1,2.9-0.2,3c-0.1,0.1-2.9,0.3-8.3,0.5l-8.2,0.2c-1-2.1-1.7-10.2-2.2-24.3
		c0-1.1-0.4-9.6-1.2-25.5c-0.8-15.9-1.2-27.1-1.2-33.6c0-0.7,0-1.8,0.1-3c0.1-1.3,0.1-2.2,0.1-2.7c0.1-3.9,0.7-5.9,1.9-5.9h0.5
		C115.4,22.2,116,22.1,116.5,21.9z M173.1,90.8l0.2,0.3c0.1-0.3,0.1-0.5,0-0.6C173.1,90.3,173.1,90.4,173.1,90.8z M173.6,93.2
		c0.2,0.2,0.4,0.2,0.6,0c0.2-0.2,0.1-0.3-0.3-0.3C173.5,92.8,173.4,93,173.6,93.2z"/>
	<path class="st1" d="M198.5,22.2h11.3l0.3,15.8c0.6,38.8,1,63,1,72.6c0,0.6,0,1.3,0,1.9c0,0.6,0,1.2,0,1.6c0,0.4,0,0.8-0.1,1
		c-0.1,0.3-0.1,0.5-0.1,0.7v0.3c-0.3,0.3-3.1,0.5-8.5,0.5c-5.2,0-8-0.2-8.3-0.5c-0.9-1.1-1.3-26.5-1.3-76.4c0-10.5,0.1-16,0.3-16.5
		c0.1-0.1,0.9-0.3,2.5-0.6C197.2,22.4,198.2,22.2,198.5,22.2z"/>
	<path class="st1" d="M223.4,22.7c2.2-0.4,5.2-0.6,8.9-0.6l6.2,0.2c2.6,4.2,4.3,8.3,5.1,12.5c0.2,1.1,0.5,1.8,0.8,2.1
		c0.2,0.2,1.1,2.6,2.8,7c1.7,4.5,2.9,8.1,3.8,10.9c1,3,1.6,4.9,1.9,5.8c0.5,1.3,0.8,2.3,0.8,3c0,0.4,0.6,2,1.8,4.6l0.3,0.5
		c0.2,0,0.3-1.6,0.3-4.8c0-0.5,0-2.2-0.1-4.9c-0.1-2.7-0.1-5.2-0.1-7.4c-0.2-13.8-0.4-21.6-0.5-23.2c0-0.4,0-1-0.1-1.8
		c-0.1-0.7-0.1-1.2-0.1-1.4c0-1.8,0.2-3,0.7-3.5c0.5-0.5,1.4-0.9,2.8-1.1c1.9-0.3,5-0.5,9.3-0.5c2.7,0,4.1,0.1,4.3,0.3
		c0.4,0.6,0.9,17.1,1.3,49.4c0.2,12.8,0.4,19.7,0.5,20.6c0.3,5.1,0.5,8.3,0.5,9.4c0,1-0.1,1.6-0.3,1.9c-0.2,0.3-0.7,0.6-1.4,1
		c0.1,0.1,0.3,0.3,0.6,0.5c0.3,0.2,0.5,0.4,0.6,0.5c0.1,0.1,0.2,0.2,0.3,0.4c0.2,0.2,0.3,0.4,0.3,0.6c0.1,0.3,0.1,0.5,0.2,0.7
		c0.1,0.2,0.1,0.6,0.1,1.1c0,0.5,0,1,0.1,1.5c0.1,0.5,0.1,1.2,0.1,2.2v3c0,1.8-0.3,2.9-0.8,3.2c-0.9,0.4-4.8,0.6-12,0.6
		c-2.6,0-4.3-0.1-5.1-0.2l-3.2-0.2l-1.3-3c-0.9-1.6-2-4.4-3.4-8.5c-1.4-4-2.4-6.7-3-8c-0.2-0.6-0.7-2-1.5-4.1
		c-0.8-2.1-1.4-3.5-1.7-4.4c-1.1-3-1.7-4.4-1.8-4.3c-0.2,0.2-0.2,1.5,0,3.8c0.7,11.2,1.1,18.4,1.1,21.7v1.6l-0.2,4.2l-5.6,0.2h-5.8
		l-1.1-2.2c-0.2-0.1-0.3,0.3-0.3,1.1c0,0.5-0.3,0.9-1,1c-1.7,0.2-2.6,0.2-2.7,0c-0.1-0.1-0.3-2.9-0.7-8.3
		c-0.4-5.4-0.7-11.7-1.1-18.7c-0.4-7-0.6-12.7-0.6-16.9c0-2.9-0.2-10.2-0.6-22c-0.4-11.8-0.6-19.3-0.6-22.5c0-0.6,0.1-1.3,0.2-1.9
		v-1C222.9,23.3,223.2,22.7,223.4,22.7z"/>
	<path class="st1" d="M319.3,32.4c0.7,37.3,1.1,62.8,1.1,76.4v4.3v1.6l-2.1-0.2c-1.4-0.2-2.1-0.2-2.2,0.2c-0.1,0.3-2.9,0.5-8.5,0.5
		c-2.2,0-3.5-0.1-3.7-0.2c-0.6-0.4-1.1-8.7-1.3-24.9c0-2.8-0.2-13-0.6-30.8c-0.2-12.4-0.4-19.3-0.5-20.9l-0.3-6.6h-4
		c-3.5,0-5.8-0.1-6.9-0.3c-1.6-0.2-2.6-0.6-2.9-1c-0.3-0.5-0.5-1.8-0.5-4.1c0-3.1,0.7-4.8,2.2-5.3c0.3-0.1,2.5-0.2,6.5-0.3
		c4-0.1,7.9-0.2,11.7-0.3l5.8-0.2c0.1-0.1,1.5-0.2,4.2-0.2c5.1,0,7.9,0.1,8.3,0.3c0.5,0.2,1.8,0.4,3.7,0.6l3.2,0.3v10.2L326,32
		L319.3,32.4z"/>
	<path class="st1" d="M345.5,92.8c1.3-0.1,2.8-0.2,4.6-0.2c2.3,0,3.7,0.2,4,0.5c0.5,0.5,0.8,6.1,0.8,16.8c0,3.8-0.1,5.9-0.3,6.1
		c-0.4,0.3-4.3,0.5-11.5,0.5c-3,0-4.5-0.1-4.6-0.2c-0.7-0.5-1.1-5.1-1.1-13.7c0-4.2,0.2-6.9,0.5-8.2C338,93.7,340.5,93.2,345.5,92.8
		z"/>
	<path class="st1" d="M398.8,20.4c0.2-0.2,0.8-0.2,1.8,0c1.4,0.3,2.8,0.5,4.3,0.5c1,0,1.5-0.1,1.8-0.3c0.2-0.2,0.5-0.1,1,0.3
		c0.5,0.5,1.5,0.5,2.9,0h0.2c0.9,0,1.3,8.8,1.3,26.5v20.5c0,3.8,0,8.4,0,13.7c0,5.3,0,9.2-0.1,11.8c-0.1,2.6-0.1,5.4-0.2,8.4
		c-0.1,3-0.1,5.2-0.2,6.8c-0.1,1.5-0.3,2.7-0.5,3.6c-0.4,2.7-1.4,4.4-2.9,5.1c-1.1,0.5-6.4,0.8-16.1,0.8c-9.7,0-15.1-0.1-16.1-0.3
		c-2-0.5-3.7-2-5.1-4.3c-1.1-1.9-1.8-4.5-2.2-7.8c-0.4-3.3-0.8-11.6-1.4-24.8c-0.7-17.3-1.1-31.9-1.1-43.9c0-6.8,0.2-11.1,0.5-12.8
		c0.2-0.9,0.5-1.4,1-1.6c0.2-0.1,3.1-0.3,8.8-0.5l8-0.2l0.3,22.4c0.5,33.8,1.4,52.8,2.7,57.1c0.4,1.4,1.1,2.6,2.2,3.8
		c1,1.1,1.9,1.7,2.6,1.7c0.6,0,1.1-0.7,1.3-2.1c0-0.1,0-0.7,0.1-1.7c0.1-1,0.1-2.4,0.1-4.3c0-1.9,0-3.8,0-5.8c0-2,0-5.9-0.1-11.7
		c-0.1-5.8-0.1-10.5-0.1-14c0-7.4,0-15-0.1-23c-0.1-8-0.1-12.5-0.1-13.6c0-5.9,0.1-8.9,0.3-9.1c0-0.1,0.9-0.3,2.6-0.5
		C397.7,20.7,398.7,20.6,398.8,20.4z"/>
	<path class="st1" d="M455.3,41.2c-1.3,0.4-2.3,0.6-3.2,0.6c-0.6,0-1.1,0.2-1.4,0.5c-0.1,0.2-1.1,0.6-3,1c-1.9,0.5-2.9,0.8-3,1
		c-0.2,0.3-1.1,0.6-2.7,0.8l-2.4,0.5v14.5c0,8.6,0.2,19.2,0.6,31.8c0.1,3.2,0.2,6.4,0.3,9.7c0.1,3.3,0.2,5.7,0.2,7.4
		c0.1,1.7,0.1,3,0.1,4c0,1.8-0.1,2.8-0.3,3c-0.1,0.1-2.8,0.3-8,0.5l-7.8,0.2l-0.3-1c-0.3-1.2-0.6-10.6-1-28.4
		c-0.3-17.7-0.5-33.3-0.5-46.6c0-9.7,0.1-15.1,0.3-16.1c0.4-1.1,1-1.6,1.6-1.6c0.6,0,1.2-0.1,1.6-0.3c0.4-0.2,2.6-0.3,6.6-0.3h6.2v5
		c0.1,3.1,0.4,4.8,0.8,5.3c0.4,0.4,0.7,0.4,0.8,0c0.2-0.3,0.6-0.5,1.3-0.5c0.6,0,1-0.2,1.1-0.5c0.1-0.2,1.9-0.9,5.5-2
		c3.6-1.1,5.7-1.7,6.3-1.7c0.4,0,1.2-0.3,2.2-0.8c3.3-1.7,5.8-2.6,7.4-2.7c3-0.4,8-0.6,15.2-0.6h0.8c0.2,0.2,0.3,2.1,0.3,5.6
		c0,2-0.1,3.1-0.2,3.4c-0.1,0.4-0.6,0.6-1.6,0.6c-0.7,0-2.2,0.4-4.3,1.3l-3,1.3l0.3,29.2c0.2,18.3,0.4,30.3,0.6,36
		c0.2,2.8,0.3,6.1,0.3,10.1c0,2.8-0.1,4.3-0.3,4.5c-0.3,0.5-3.4,0.8-9.3,0.8c-2,0-3.1-0.1-3.4-0.3c-0.1-0.3-0.6-0.4-1.6-0.2
		c-1,0.2-1.5-0.1-1.6-0.7c-0.6-3.4-1.1-18.9-1.4-46.5L455.3,41.2z"/>
</g>
</svg>
